<svg id="Layer_1" data-name="Layer 1" xmlns="http://www.w3.org/2000/svg" viewBox="0 0 1248.91 474.95"><defs><style>.cls-1{fill:#34bfca;}.cls-2{fill:#ffc917;}.cls-3{fill:#f14072;}</style></defs><title>logoTowi</title><path class="cls-1" d="M351.4,188.72c3.84-.34,5.06-5.52,1.68-7.37l-0.09,0L92.08,32.39c-19.86-11.47-43.46-3.32-53.7,14.47-6.8,12.2-3.1,27.66-3.1,27.66,4.38,16.13,16.71,38.83,47,68.15,4.61,4.46,33.9,32.87,57,55.29a4,4,0,0,0,5,.42,56.1,56.1,0,0,1,80.25,19,4,4,0,0,0,4.56,1.91l74.53-21.2A258.74,258.74,0,0,1,351.4,188.72Z"/><path class="cls-2" d="M136.22,425.12c-1.62,3.5,2.25,7.14,5.54,5.14l0.08-.05,259.42-151.5c19.86-11.47,24.6-36,14.31-53.74-7.17-12-22.41-16.51-22.41-16.51-16.16-4.27-42-4.95-82.53,6.65-6.17,1.76-45.42,12.93-76.38,21.73a4,4,0,0,0-2.87,4.13,56.1,56.1,0,0,1-56.57,60,4,4,0,0,0-3.93,3c-7.78,30.88-17.38,69-18.91,75.14A258.74,258.74,0,0,1,136.22,425.12Z"/><path class="cls-3" d="M38.91,121c-2.22-3.16-7.31-1.63-7.22,2.23v0.1l1.49,300.42c0,22.93,18.86,39.29,39.38,39.27,14-.21,25.5-11.15,25.5-11.15C109.84,440,123.34,418,133.57,377.1c1.56-6.22,11.52-45.8,19.38-77a4,4,0,0,0-2.14-4.55,56.1,56.1,0,0,1-23.67-79,4,4,0,0,0-.63-4.9c-22.85-22.17-51.09-49.56-55.62-53.94A258.74,258.74,0,0,1,38.91,121Z"/><path class="cls-1" d="M514.92,198.6h-6.86c-19,0-31.23-8.38-31.23-27.42s12.19-27.42,31.23-27.42h6.86V104.91c0-17.14,12.19-30.85,29.71-30.85s29.71,13.71,29.71,30.85v38.85h16.38c19,0,31.23,8.38,31.23,27.42s-12.19,27.42-31.23,27.42H574.33V317.81c0,17.14-12.19,30.85-29.71,30.85S514.92,335,514.92,317.81V198.6Z"/><path class="cls-1" d="M837.62,203.17c-5-13.33-8.38-22.47-9.14-33.14,0-15.62,10.28-28.56,30.09-28.56,14.09,0,24.38,7.62,28.18,20.95l28.95,96.36h0.76l26.66-83.41c5-15.62,10.66-33.9,32-33.9s27,18.28,32,33.9l26.66,83.41h0.76l28.95-96.36c3.81-13.33,14.09-20.95,28.18-20.95,19.81,0,30.09,12.95,30.09,28.56-0.76,10.66-4.19,19.81-9.14,33.14L1071.1,319.34c-6.86,19.42-16.76,29.33-36.94,29.33-21.33,0-28.57-11-35.42-31.23L975.5,247.35h-0.76L951.5,317.43c-6.86,20.19-14.09,31.23-35.42,31.23-20.19,0-30.09-9.9-36.94-29.33Z"/><path class="cls-1" d="M1172.62,56.61A35.42,35.42,0,1,1,1137.2,92,35.35,35.35,0,0,1,1172.62,56.61Zm-29.71,115.71c0-17.14,12.19-30.85,29.71-30.85s29.71,13.71,29.71,30.85V317.81c0,17.14-12.19,30.85-29.71,30.85s-29.71-13.71-29.71-30.85V172.32Z"/><path class="cls-1" d="M719.59,140.45A104.08,104.08,0,1,0,823.67,244.52,104.08,104.08,0,0,0,719.59,140.45Zm0,149.61a45.54,45.54,0,1,1,45.54-45.54A45.54,45.54,0,0,1,719.59,290.06Z"/></svg>